<?xml version="1.0" encoding="utf-8"?>
<!-- Generator: Adobe Illustrator 21.0.1, SVG Export Plug-In . SVG Version: 6.00 Build 0)  -->
<svg version="1.1" id="Layer_1" xmlns="http://www.w3.org/2000/svg" xmlns:xlink="http://www.w3.org/1999/xlink" x="0px" y="0px"
	 viewBox="0 0 311.4 65.1" style="enable-background:new 0 0 311.4 65.1;" xml:space="preserve">
<style type="text/css">
	.st0{fill:#343434;}
</style>
<path class="st0" d="M23.8,32.5c0-4.2,3.4-7.8,7.8-7.8c4.2,0,7.8,3.4,7.8,7.8s-3.4,7.8-7.8,7.8S23.8,36.9,23.8,32.5z M31.6,0
	C16.4,0,3.6,10.4,0,24.4c0,0.2,0,0.3,0,0.3c0,0.9,0.6,1.6,1.6,1.6h13.1c0.6,0,1.1-0.3,1.4-0.9l0,0c2.6-5.9,8.6-10,15.6-10
	c9.3,0,17.1,7.6,17.1,17.1s-7.6,17.1-17.1,17.1c-6.9,0-12.8-4-15.6-10l0,0c-0.3-0.5-0.8-0.9-1.4-0.9H1.6c-0.9,0-1.6,0.6-1.6,1.6
	c0,0.2,0,0.2,0,0.3c3.6,14,16.4,24.4,31.6,24.4c18.1,0,32.5-14.6,32.5-32.5C64.2,14.5,49.5,0,31.6,0z M116.8,40.2h-4.4
	c-0.3,0-0.6,0.2-0.8,0.3c-2.6,3.7-6.9,6.2-11.8,6.2c-7.9,0-14.3-6.4-14.3-14.3s6.4-14.3,14.3-14.3c5,0,9.3,2.5,11.8,6.2
	c0.2,0.2,0.5,0.3,0.8,0.3h4.4c0.5,0,0.9-0.5,0.9-0.9c0-0.2,0-0.3-0.2-0.5c-3.3-6.5-10.1-11.1-17.9-11.1c-11.1,0-20.1,9-20.1,20.1
	s9,20.1,20.1,20.1c7.8,0,14.6-4.5,17.9-11.1c0-0.2,0.2-0.3,0.2-0.5C117.7,40.6,117.3,40.2,116.8,40.2z M130.2,5.8
	c0,2.2-1.7,3.9-3.9,3.9s-3.9-1.7-3.9-3.9s1.7-3.9,3.9-3.9C128.5,2,130.2,3.7,130.2,5.8z M129.2,50.6V13.4h-5.8v37.2
	c0,0.5,0.5,0.9,0.9,0.9h3.9C128.8,51.7,129.2,51.2,129.2,50.6z M154,12.5c-5.8,0.3-10.4,3-13.4,7.3v-5.3c0-0.5-0.5-0.9-0.9-0.9h-3.9
	c-0.5,0-0.9,0.5-0.9,0.9l0,0v36.3c0,0.5,0.5,0.9,0.9,0.9h3.9c0.5,0,0.9-0.5,0.9-0.9V32.5c0-7.6,5.9-13.9,13.4-14.3
	c0.5,0,0.9-0.5,0.9-0.9v-3.9C154.9,12.9,154.5,12.5,154,12.5z M192,40.2h-4.4c-0.3,0-0.6,0.2-0.8,0.3c-2.6,3.7-6.9,6.2-11.8,6.2
	c-7.9,0-14.3-6.4-14.3-14.3s6.4-14.3,14.3-14.3c5,0,9.3,2.5,11.8,6.2c0.2,0.2,0.5,0.3,0.8,0.3h4.4c0.5,0,0.9-0.5,0.9-0.9
	c0-0.2,0-0.3-0.2-0.5c-3.3-6.5-10.1-11.1-17.9-11.1c-11.1,0-20.1,9-20.1,20.1s9,20.1,20.1,20.1c7.8,0,14.6-4.5,17.9-11.1
	c0-0.2,0.2-0.3,0.2-0.5C192.9,40.6,192.6,40.2,192,40.2z M203.5,1.1h-3.9c-0.5,0-0.9,0.5-0.9,0.9v48.7c0,0.5,0.5,0.9,0.9,0.9h3.9
	c0.5,0,0.9-0.5,0.9-0.9V2C204.5,1.4,204,1.1,203.5,1.1z M230.1,12.5c-11.1,0-20.1,9-20.1,20.1s9,20.1,20.1,20.1
	c7.8,0,14.6-4.5,17.9-11.1c0-0.2,0.2-0.3,0.2-0.5c0-0.5-0.5-0.9-0.9-0.9h-4.4c-0.3,0-0.6,0.2-0.8,0.5c-2.6,3.7-6.9,6.2-11.8,6.2
	c-7.3,0-13.2-5.5-14.2-12.5h33.3c0.5,0,0.9-0.5,0.9-0.9c0-0.3,0-0.6,0-0.9C250.2,21.5,241.4,12.5,230.1,12.5z M216.4,28.7
	c1.7-6.1,7.2-10.4,13.9-10.4c6.5,0,12.1,4.5,13.9,10.4H216.4z M305.7,0.2c-3.1,0-5.8,2.5-5.8,5.8c0,3.1,2.5,5.8,5.8,5.8
	c3.1,0,5.8-2.5,5.8-5.8C311.4,2.6,308.9,0.2,305.7,0.2z M310.5,13.4v37.2c0,0.5-0.5,0.9-0.9,0.9h-7.6c-0.5,0-0.9-0.5-0.9-0.9V13.4
	H310.5z M276.1,52.6c9.3,0,17.1-6.4,19.5-15.1v-0.2c0-0.5-0.5-0.9-0.9-0.9h-8.1c-0.3,0-0.8,0.2-0.9,0.6l0,0
	c-1.7,3.6-5.3,6.1-9.5,6.1c-5.8,0-10.4-4.7-10.4-10.4s4.7-10.4,10.4-10.4c4.2,0,7.9,2.5,9.5,6.1l0,0c0.2,0.3,0.5,0.6,0.9,0.6h8.1
	c0.5,0,0.9-0.5,0.9-0.9v-0.2c-2.2-8.7-10.1-15.1-19.5-15.1c-11.1,0-20.1,9-20.1,20.1C256,43.6,265,52.6,276.1,52.6z"/>
</svg>
